<svg width="15" height="14" viewBox="0 0 15 14" fill="none" xmlns="http://www.w3.org/2000/svg">
<g opacity="0.2">
<path d="M7.13983 1.16669C3.92324 1.16669 1.3065 3.78342 1.3065 7.00002C1.3065 10.2166 3.92324 12.8334 7.13983 12.8334C10.3564 12.8334 12.9732 10.2166 12.9732 7.00002C12.9732 3.78342 10.3564 1.16669 7.13983 1.16669ZM6.89678 10.4028C6.49428 10.4028 6.16761 10.0761 6.16761 9.67363C6.16761 9.27113 6.49428 8.94447 6.89678 8.94447C7.29928 8.94447 7.62594 9.27113 7.62594 9.67363C7.62594 10.0761 7.29928 10.4028 6.89678 10.4028ZM8.9924 6.08953C8.84219 6.33016 8.55685 6.60044 8.13587 6.90085C7.45483 7.40446 7.47331 7.51627 7.47331 7.97224H6.27893C6.27893 7.61592 6.27115 7.34224 6.46365 7.00926C6.58664 6.79585 6.81219 6.56884 7.13983 6.3287C7.5331 6.04773 7.91518 5.77697 7.91518 5.30544C7.91518 4.86356 7.53699 4.70606 7.09511 4.70606C6.64449 4.70606 6.13067 4.85335 5.55365 5.14794L5.06219 4.16113C6.11074 3.57342 7.76546 3.30752 8.67011 4.04398C9.33414 4.58502 9.33803 5.53634 8.9924 6.08953Z" fill="#1E1A3E"/>
</g>
</svg>
